<?xml version="1.0" standalone="no"?>
<!DOCTYPE svg PUBLIC "-//W3C//DTD SVG 20010904//EN"
 "http://www.w3.org/TR/2001/REC-SVG-20010904/DTD/svg10.dtd">
<svg version="1.0" xmlns="http://www.w3.org/2000/svg"
 width="512.000000pt" height="512.000000pt" viewBox="0 0 512.000000 512.000000"
 preserveAspectRatio="xMidYMid meet">
<metadata>
Created by potrace 1.11, written by Peter Selinger 2001-2013
</metadata>
<g transform="translate(0.000000,512.000000) scale(0.100000,-0.100000)"
fill="#000000" stroke="none">
<path d="M1783 4357 c-59 -62 -82 -140 -69 -231 l7 -46 35 47 c55 76 74 122
74 183 0 78 -9 87 -47 47z"/>
<path d="M1847 4384 c-11 -11 -8 -103 4 -144 6 -20 33 -64 59 -98 43 -55 48
-59 54 -39 21 78 -12 191 -72 250 -21 21 -41 34 -45 31z"/>
<path d="M3856 4343 c-50 -69 -68 -158 -47 -232 6 -22 10 -19 50 43 28 43 47
85 51 114 8 52 2 122 -11 122 -5 0 -24 -21 -43 -47z"/>
<path d="M3938 4384 c-12 -11 -9 -107 3 -145 7 -19 31 -60 54 -92 32 -43 44
-54 49 -41 11 29 6 110 -10 157 -17 49 -84 134 -96 121z"/>
<path d="M1522 4125 c-61 -68 -81 -139 -68 -229 l7 -46 35 47 c55 76 74 122
74 183 0 79 -10 89 -48 45z"/>
<path d="M2053 4138 c-54 -60 -82 -156 -68 -244 6 -41 8 -45 17 -29 6 11 26
43 46 72 29 44 35 63 40 121 2 38 0 77 -5 86 -8 15 -11 14 -30 -6z"/>
<path d="M2107 4154 c-11 -11 -8 -103 4 -144 6 -20 33 -64 59 -98 43 -55 48
-59 54 -39 21 78 -12 191 -72 250 -21 21 -41 34 -45 31z"/>
<path d="M4134 4128 c-18 -18 -39 -48 -48 -65 -20 -39 -30 -137 -19 -176 l8
-28 43 60 c48 69 68 139 55 201 l-8 41 -31 -33z"/>
<path d="M1592 4078 c5 -72 12 -92 72 -191 22 -37 24 -37 30 -15 10 39 7 102
-8 152 -18 60 -61 126 -82 126 -14 0 -16 -10 -12 -72z"/>
<path d="M4193 4134 c-3 -8 -3 -43 0 -76 4 -51 13 -71 53 -129 53 -77 64 -76
64 7 0 65 -22 130 -61 177 -33 40 -46 45 -56 21z"/>
<path d="M1523 3897 c-59 -62 -82 -140 -69 -231 l7 -46 35 47 c55 76 74 122
74 183 0 78 -9 87 -47 47z"/>
<path d="M2041 3893 c-37 -45 -61 -118 -60 -182 1 -42 16 -111 18 -85 1 6 20
39 42 72 36 54 42 71 47 131 2 37 0 76 -5 86 -9 15 -14 12 -42 -22z"/>
<path d="M2107 3924 c-11 -11 -8 -103 4 -144 6 -20 33 -64 59 -98 43 -55 48
-59 54 -39 21 78 -12 191 -72 250 -21 21 -41 34 -45 31z"/>
<path d="M1592 3848 c5 -72 12 -92 72 -191 22 -37 24 -37 30 -15 10 39 7 102
-8 152 -18 60 -61 126 -82 126 -14 0 -16 -10 -12 -72z"/>
<path d="M1516 3659 c-54 -64 -77 -159 -60 -247 6 -30 6 -30 57 45 47 69 52
81 55 143 2 38 0 76 -5 85 -9 15 -15 11 -47 -26z"/>
<path d="M1776 3659 c-54 -64 -77 -159 -60 -247 6 -30 6 -30 57 45 47 69 52
81 55 143 2 38 0 76 -5 85 -9 15 -15 11 -47 -26z"/>
<path d="M1847 3694 c-11 -11 -8 -103 4 -144 6 -20 33 -64 59 -98 43 -55 48
-59 54 -39 21 78 -12 191 -72 250 -21 21 -41 34 -45 31z"/>
<path d="M2048 3669 c-57 -75 -77 -154 -63 -244 l7 -47 46 78 c41 68 47 87 50
145 2 37 0 75 -6 84 -8 15 -12 13 -34 -16z"/>
<path d="M2107 3694 c-11 -11 -8 -103 4 -144 6 -20 33 -64 59 -98 43 -55 48
-59 54 -39 21 78 -12 191 -72 250 -21 21 -41 34 -45 31z"/>
<path d="M1592 3618 c5 -72 12 -92 72 -191 22 -37 24 -37 30 -15 10 39 7 102
-8 152 -18 60 -61 126 -82 126 -14 0 -16 -10 -12 -72z"/>
<path d="M3410 3630 c0 -71 14 -110 68 -185 36 -50 40 -53 46 -32 19 71 -9
180 -61 238 -19 21 -39 39 -44 39 -5 0 -9 -27 -9 -60z"/>
<path d="M3608 3663 c-54 -58 -80 -153 -64 -239 l7 -37 50 74 c48 73 49 75 49
152 0 42 -4 77 -8 77 -5 0 -20 -12 -34 -27z"/>
<path d="M1523 3427 c-59 -62 -82 -140 -69 -231 l7 -46 35 47 c55 76 74 122
74 183 0 78 -9 87 -47 47z"/>
<path d="M3151 3381 c4 -75 6 -81 54 -151 l50 -72 8 34 c12 46 2 118 -24 170
-22 45 -67 98 -82 98 -5 0 -8 -35 -6 -79z"/>
<path d="M3346 3429 c-15 -17 -34 -45 -43 -63 -18 -36 -29 -151 -16 -183 7
-19 13 -14 56 49 46 70 47 73 47 150 0 43 -4 78 -9 78 -5 0 -21 -14 -35 -31z"/>
<path d="M1592 3376 c4 -67 9 -81 50 -145 50 -77 58 -75 58 15 0 75 -61 204
-96 204 -14 0 -16 -11 -12 -74z"/>
<path d="M743 3197 c-59 -62 -82 -140 -69 -231 l7 -46 35 47 c55 76 74 122 74
183 0 78 -9 87 -47 47z"/>
<path d="M807 3223 c-11 -11 -7 -106 6 -143 7 -20 34 -61 60 -93 50 -62 65
-68 20 -8 -20 26 -28 50 -31 94 -4 57 -4 59 16 48 11 -6 23 -18 26 -27 4 -9 9
-14 13 -11 7 8 -49 96 -80 125 -13 12 -27 19 -30 15z"/>
<path d="M1001 3193 c-37 -45 -61 -118 -60 -182 1 -42 16 -111 18 -85 1 6 20
39 42 72 36 54 42 71 47 131 2 37 0 76 -5 86 -9 15 -14 12 -42 -22z"/>
<path d="M1068 3224 c-13 -13 -9 -113 7 -149 8 -20 32 -60 53 -90 36 -50 40
-53 46 -32 10 39 6 102 -10 150 -17 49 -84 134 -96 121z"/>
<path d="M1261 3193 c-37 -45 -61 -118 -60 -182 1 -42 16 -111 18 -85 1 6 20
39 42 72 36 54 42 71 47 131 2 37 0 76 -5 86 -9 15 -14 12 -42 -22z"/>
<path d="M1523 3197 c-59 -62 -82 -140 -69 -231 l7 -46 35 47 c55 76 74 122
74 183 0 78 -9 87 -47 47z"/>
<path d="M1332 3146 c4 -67 9 -81 50 -145 40 -62 46 -68 52 -48 9 33 7 98 -4
137 -14 51 -67 130 -86 130 -14 0 -16 -10 -12 -74z"/>
<path d="M1592 3146 c4 -67 9 -81 50 -145 40 -62 46 -68 52 -48 9 33 7 98 -4
137 -14 51 -67 130 -86 130 -14 0 -16 -10 -12 -74z"/>
<path d="M1001 2963 c-37 -45 -61 -118 -60 -182 1 -42 16 -111 18 -85 1 6 20
39 42 72 36 54 42 71 47 131 2 37 0 76 -5 86 -9 15 -14 12 -42 -22z"/>
<path d="M1064 2986 c-11 -28 2 -140 20 -171 9 -17 32 -52 51 -78 l34 -48 7
37 c15 82 -21 199 -80 253 -23 22 -26 22 -32 7z"/>
<path d="M1261 2963 c-37 -45 -61 -118 -60 -182 1 -42 16 -111 18 -85 1 6 20
39 42 72 36 54 42 71 47 131 2 37 0 76 -5 86 -9 15 -14 12 -42 -22z"/>
<path d="M1523 2967 c-59 -62 -82 -140 -69 -231 l7 -46 35 47 c55 76 74 122
74 183 0 78 -9 87 -47 47z"/>
<path d="M1332 2918 c5 -72 12 -92 72 -191 22 -37 24 -37 30 -15 10 39 7 102
-8 152 -18 60 -61 126 -82 126 -14 0 -16 -10 -12 -72z"/>
<path d="M1592 2918 c5 -72 12 -92 72 -191 22 -37 24 -37 30 -15 10 39 7 102
-8 152 -18 60 -61 126 -82 126 -14 0 -16 -10 -12 -72z"/>
<path d="M1261 2733 c-37 -45 -61 -118 -60 -182 1 -42 16 -111 18 -85 1 6 20
39 42 72 36 54 42 71 47 131 2 37 0 76 -5 86 -9 15 -14 12 -42 -22z"/>
<path d="M1523 2737 c-59 -62 -82 -140 -69 -231 l7 -46 35 47 c55 76 74 122
74 183 0 78 -9 87 -47 47z"/>
<path d="M1332 2676 c4 -67 9 -81 50 -145 50 -77 58 -75 58 15 0 75 -61 204
-96 204 -14 0 -16 -11 -12 -74z"/>
<path d="M1592 2676 c4 -67 9 -81 50 -145 50 -77 58 -75 58 15 0 75 -61 204
-96 204 -14 0 -16 -11 -12 -74z"/>
<path d="M1261 2503 c-37 -45 -61 -118 -60 -182 1 -42 16 -111 18 -85 1 6 20
39 42 72 36 54 42 71 47 131 2 37 0 76 -5 86 -9 15 -14 12 -42 -22z"/>
<path d="M1523 2507 c-59 -62 -82 -140 -69 -231 l7 -46 35 47 c55 76 74 122
74 183 0 78 -9 87 -47 47z"/>
<path d="M1783 2507 c-59 -62 -82 -140 -69 -231 l7 -46 35 47 c55 76 74 122
74 183 0 78 -9 87 -47 47z"/>
<path d="M1847 2524 c-11 -12 -7 -106 6 -144 7 -20 34 -61 60 -93 l46 -57 7
36 c9 48 -2 116 -25 162 -22 43 -84 106 -94 96z"/>
<path d="M1332 2446 c4 -67 9 -81 50 -145 50 -77 58 -75 58 15 0 75 -61 204
-96 204 -14 0 -16 -11 -12 -74z"/>
<path d="M1592 2446 c4 -67 9 -81 50 -145 50 -77 58 -75 58 15 0 75 -61 204
-96 204 -14 0 -16 -11 -12 -74z"/>
<path d="M1268 2279 c-57 -75 -77 -154 -63 -244 l7 -47 46 78 c41 68 47 87 50
145 2 37 0 75 -6 84 -8 15 -12 13 -34 -16z"/>
<path d="M1516 2269 c-54 -64 -77 -159 -60 -247 6 -30 6 -30 57 45 47 69 52
81 55 143 2 38 0 76 -5 85 -9 15 -15 11 -47 -26z"/>
<path d="M1776 2269 c-54 -64 -77 -159 -60 -247 6 -30 6 -30 57 45 47 69 52
81 55 143 2 38 0 76 -5 85 -9 15 -15 11 -47 -26z"/>
<path d="M1848 2304 c-12 -12 -8 -116 5 -154 7 -19 34 -63 59 -97 l46 -62 6
31 c17 88 -7 177 -67 243 -23 26 -45 43 -49 39z"/>
<path d="M2048 2279 c-57 -75 -77 -154 -63 -244 l7 -47 46 78 c41 68 47 87 50
145 2 37 0 75 -6 84 -8 15 -12 13 -34 -16z"/>
<path d="M2108 2304 c-12 -12 -8 -116 5 -154 7 -19 34 -63 59 -97 l46 -62 6
31 c17 88 -7 177 -67 243 -23 26 -45 43 -49 39z"/>
<path d="M2306 2269 c-54 -64 -77 -159 -60 -247 6 -30 6 -30 57 45 47 69 52
81 55 143 2 38 0 76 -5 85 -9 15 -15 11 -47 -26z"/>
<path d="M2377 2303 c-10 -10 -8 -103 3 -143 5 -20 30 -66 54 -103 l45 -68 7
36 c9 51 -1 125 -26 183 -22 51 -71 107 -83 95z"/>
<path d="M2568 2279 c-57 -75 -77 -154 -63 -244 l7 -47 46 78 c41 68 47 87 50
145 2 37 0 75 -6 84 -8 15 -12 13 -34 -16z"/>
<path d="M2816 2269 c-54 -64 -77 -159 -60 -247 6 -30 6 -30 57 45 47 69 52
81 55 143 2 38 0 76 -5 85 -9 15 -15 11 -47 -26z"/>
<path d="M2897 2303 c-10 -10 -8 -103 3 -143 5 -20 30 -66 54 -103 l45 -68 7
36 c9 51 -1 125 -26 183 -22 51 -71 107 -83 95z"/>
<path d="M3088 2279 c-57 -75 -77 -154 -63 -244 l7 -47 46 78 c41 68 47 87 50
145 2 37 0 75 -6 84 -8 15 -12 13 -34 -16z"/>
<path d="M1332 2221 c4 -71 9 -85 50 -155 39 -66 46 -73 52 -54 19 71 -3 182
-50 249 -44 64 -57 53 -52 -40z"/>
<path d="M1592 2221 c4 -71 9 -85 50 -155 39 -66 46 -73 52 -54 19 71 -3 182
-50 249 -44 64 -57 53 -52 -40z"/>
<path d="M2632 2221 c4 -71 9 -85 50 -155 39 -66 46 -73 52 -54 19 71 -3 182
-50 249 -44 64 -57 53 -52 -40z"/>
<path d="M3151 2221 c4 -75 6 -81 54 -151 l50 -72 8 34 c12 46 2 118 -24 170
-22 45 -67 98 -82 98 -5 0 -8 -35 -6 -79z"/>
<path d="M3341 2263 c-39 -47 -61 -113 -60 -177 1 -90 9 -92 62 -14 46 70 47
73 47 150 0 43 -4 78 -9 78 -5 0 -23 -17 -40 -37z"/>
<path d="M3412 2220 c4 -76 7 -83 53 -151 40 -57 51 -67 56 -52 13 30 10 97
-6 149 -14 49 -76 134 -97 134 -7 0 -9 -28 -6 -80z"/>
<path d="M1261 2033 c-37 -45 -61 -118 -60 -182 1 -42 16 -111 18 -85 1 6 20
39 42 72 36 54 42 71 47 131 2 37 0 76 -5 86 -9 15 -14 12 -42 -22z"/>
<path d="M1523 2037 c-59 -62 -82 -140 -69 -231 l7 -46 35 47 c55 76 74 122
74 183 0 78 -9 87 -47 47z"/>
<path d="M1783 2037 c-59 -62 -82 -140 -69 -231 l7 -46 35 47 c55 76 74 122
74 183 0 78 -9 87 -47 47z"/>
<path d="M1847 2064 c-11 -11 -8 -103 4 -144 6 -20 33 -64 59 -98 43 -55 48
-59 54 -39 21 78 -12 191 -72 250 -21 21 -41 34 -45 31z"/>
<path d="M2041 2033 c-37 -45 -61 -118 -60 -182 1 -42 16 -111 18 -85 1 6 20
39 42 72 36 54 42 71 47 131 2 37 0 76 -5 86 -9 15 -14 12 -42 -22z"/>
<path d="M2107 2064 c-11 -11 -8 -103 4 -144 6 -20 33 -64 59 -98 43 -55 48
-59 54 -39 21 78 -12 191 -72 250 -21 21 -41 34 -45 31z"/>
<path d="M2313 2037 c-59 -62 -82 -140 -69 -231 l7 -46 35 47 c55 76 74 122
74 183 0 78 -9 87 -47 47z"/>
<path d="M2374 2056 c-11 -28 2 -140 20 -171 9 -17 32 -52 51 -78 l34 -48 7
37 c15 82 -21 199 -80 253 -23 22 -26 22 -32 7z"/>
<path d="M2561 2033 c-37 -45 -61 -118 -60 -182 1 -42 16 -111 18 -85 1 6 20
39 42 72 36 54 42 71 47 131 2 37 0 76 -5 86 -9 15 -14 12 -42 -22z"/>
<path d="M2823 2037 c-59 -62 -82 -140 -69 -231 l7 -46 35 47 c55 76 74 122
74 183 0 78 -9 87 -47 47z"/>
<path d="M2894 2056 c-11 -28 2 -140 20 -171 9 -17 32 -52 51 -78 l34 -48 7
37 c15 82 -21 199 -80 253 -23 22 -26 22 -32 7z"/>
<path d="M3081 2033 c-37 -45 -61 -118 -60 -182 1 -42 16 -111 18 -85 1 6 20
39 42 72 36 54 42 71 47 131 2 37 0 76 -5 86 -9 15 -14 12 -42 -22z"/>
<path d="M3150 2003 c1 -75 13 -109 70 -186 33 -46 35 -47 41 -25 13 45 9 98
-12 153 -20 54 -71 125 -90 125 -5 0 -9 -30 -9 -67z"/>
<path d="M4195 2047 c-10 -39 0 -119 20 -157 9 -17 31 -51 50 -75 38 -50 45
-44 45 34 0 67 -25 133 -70 183 l-38 43 -7 -28z"/>
<path d="M4393 2038 c-17 -18 -38 -48 -47 -65 -20 -39 -30 -137 -19 -176 9
-29 9 -29 56 40 37 54 48 79 52 123 3 30 2 68 -2 83 l-8 28 -32 -33z"/>
<path d="M1332 1988 c5 -72 12 -92 72 -191 22 -37 24 -37 30 -15 10 39 7 102
-8 152 -18 60 -61 126 -82 126 -14 0 -16 -10 -12 -72z"/>
<path d="M1592 1988 c5 -72 12 -92 72 -191 22 -37 24 -37 30 -15 10 39 7 102
-8 152 -18 60 -61 126 -82 126 -14 0 -16 -10 -12 -72z"/>
<path d="M2632 1988 c5 -72 12 -92 72 -191 22 -37 24 -37 30 -15 10 39 7 102
-8 152 -18 60 -61 126 -82 126 -14 0 -16 -10 -12 -72z"/>
<path d="M1261 1803 c-37 -45 -61 -118 -60 -182 1 -42 16 -111 18 -85 1 6 20
39 42 72 36 54 42 71 47 131 2 37 0 76 -5 86 -9 15 -14 12 -42 -22z"/>
<path d="M1523 1807 c-59 -62 -82 -140 -69 -231 l7 -46 35 47 c55 76 74 122
74 183 0 78 -9 87 -47 47z"/>
<path d="M1783 1807 c-59 -62 -82 -140 -69 -231 l7 -46 35 47 c55 76 74 122
74 183 0 78 -9 87 -47 47z"/>
<path d="M1847 1834 c-11 -11 -8 -103 4 -144 6 -20 33 -64 59 -98 43 -55 48
-59 54 -39 21 78 -12 191 -72 250 -21 21 -41 34 -45 31z"/>
<path d="M2041 1803 c-37 -45 -61 -118 -60 -182 1 -42 16 -111 18 -85 1 6 20
39 42 72 36 54 42 71 47 131 2 37 0 76 -5 86 -9 15 -14 12 -42 -22z"/>
<path d="M2107 1834 c-11 -11 -8 -103 4 -144 6 -20 33 -64 59 -98 43 -55 48
-59 54 -39 21 78 -12 191 -72 250 -21 21 -41 34 -45 31z"/>
<path d="M2313 1807 c-59 -62 -82 -140 -69 -231 l7 -46 35 47 c55 76 74 122
74 183 0 78 -9 87 -47 47z"/>
<path d="M2374 1826 c-11 -28 2 -140 20 -171 9 -17 32 -52 51 -78 l34 -48 7
37 c15 82 -21 199 -80 253 -23 22 -26 22 -32 7z"/>
<path d="M2561 1803 c-37 -45 -61 -118 -60 -182 1 -42 16 -111 18 -85 1 6 20
39 42 72 36 54 42 71 47 131 2 37 0 76 -5 86 -9 15 -14 12 -42 -22z"/>
<path d="M2823 1807 c-59 -62 -82 -140 -69 -231 l7 -46 35 47 c55 76 74 122
74 183 0 78 -9 87 -47 47z"/>
<path d="M2894 1826 c-11 -28 2 -140 20 -171 9 -17 32 -52 51 -78 l34 -48 7
37 c15 82 -21 199 -80 253 -23 22 -26 22 -32 7z"/>
<path d="M3081 1803 c-37 -45 -61 -118 -60 -182 1 -42 16 -111 18 -85 1 6 20
39 42 72 36 54 42 71 47 131 2 37 0 76 -5 86 -9 15 -14 12 -42 -22z"/>
<path d="M3154 1826 c-11 -28 2 -140 20 -171 9 -17 32 -52 51 -78 l34 -48 7
37 c15 82 -21 199 -80 253 -23 22 -26 22 -32 7z"/>
<path d="M4134 1808 c-59 -62 -82 -137 -69 -228 l7 -49 48 72 c51 77 67 139
52 205 l-7 33 -31 -33z"/>
<path d="M4654 1808 c-39 -41 -51 -63 -64 -124 -11 -47 -5 -144 8 -144 4 1 26
31 49 67 46 73 61 132 47 194 l-9 40 -31 -33z"/>
<path d="M1332 1758 c5 -72 12 -92 72 -191 22 -37 24 -37 30 -15 10 39 7 102
-8 152 -18 60 -61 126 -82 126 -14 0 -16 -10 -12 -72z"/>
<path d="M1592 1758 c5 -72 12 -92 72 -191 22 -37 24 -37 30 -15 10 39 7 102
-8 152 -18 60 -61 126 -82 126 -14 0 -16 -10 -12 -72z"/>
<path d="M2632 1758 c5 -72 12 -92 72 -191 22 -37 24 -37 30 -15 10 39 7 102
-8 152 -18 60 -61 126 -82 126 -14 0 -16 -10 -12 -72z"/>
<path d="M3932 1755 c5 -70 8 -80 53 -146 57 -82 71 -76 63 25 -7 87 -66 196
-106 196 -12 0 -14 -14 -10 -75z"/>
<path d="M4457 1823 c-11 -10 -8 -84 4 -127 13 -45 88 -158 101 -150 14 9 9
118 -7 165 -15 43 -68 119 -84 119 -4 0 -11 -3 -14 -7z"/>
<path d="M807 1603 c-11 -11 -8 -107 5 -144 18 -54 39 -83 50 -67 6 10 16 5
38 -22 40 -46 38 -20 -2 36 -25 35 -33 57 -36 104 -3 44 -10 64 -26 79 -13 12
-26 18 -29 14z"/>
<path d="M1001 1573 c-37 -45 -61 -118 -60 -182 1 -42 16 -111 18 -85 1 6 20
39 42 72 36 54 42 71 47 131 2 37 0 76 -5 86 -9 15 -14 12 -42 -22z"/>
<path d="M1064 1596 c-11 -28 2 -140 20 -171 9 -17 32 -52 51 -78 l34 -48 7
37 c15 82 -21 199 -80 253 -23 22 -26 22 -32 7z"/>
<path d="M1261 1573 c-37 -45 -61 -118 -60 -182 1 -42 16 -111 18 -85 1 6 20
39 42 72 36 54 42 71 47 131 2 37 0 76 -5 86 -9 15 -14 12 -42 -22z"/>
<path d="M1523 1577 c-59 -62 -82 -140 -69 -231 l7 -46 35 47 c55 76 74 122
74 183 0 78 -9 87 -47 47z"/>
<path d="M1783 1577 c-59 -62 -82 -140 -69 -231 l7 -46 35 47 c55 76 74 122
74 183 0 78 -9 87 -47 47z"/>
<path d="M1847 1604 c-11 -11 -8 -103 4 -144 6 -20 33 -64 59 -98 43 -55 48
-59 54 -39 21 78 -12 191 -72 250 -21 21 -41 34 -45 31z"/>
<path d="M2041 1573 c-37 -45 -61 -118 -60 -182 1 -42 16 -111 18 -85 1 6 20
39 42 72 36 54 42 71 47 131 2 37 0 76 -5 86 -9 15 -14 12 -42 -22z"/>
<path d="M2107 1604 c-11 -11 -8 -103 4 -144 6 -20 33 -64 59 -98 43 -55 48
-59 54 -39 21 78 -12 191 -72 250 -21 21 -41 34 -45 31z"/>
<path d="M2313 1577 c-59 -62 -82 -140 -69 -231 l7 -46 35 47 c55 76 74 122
74 183 0 78 -9 87 -47 47z"/>
<path d="M2374 1596 c-11 -28 2 -140 20 -171 9 -17 32 -52 51 -78 l34 -48 7
37 c15 82 -21 199 -80 253 -23 22 -26 22 -32 7z"/>
<path d="M2561 1573 c-37 -45 -61 -118 -60 -182 1 -42 16 -111 18 -85 1 6 20
39 42 72 36 54 42 71 47 131 2 37 0 76 -5 86 -9 15 -14 12 -42 -22z"/>
<path d="M2823 1577 c-59 -62 -82 -140 -69 -231 l7 -46 35 47 c55 76 74 122
74 183 0 78 -9 87 -47 47z"/>
<path d="M2894 1596 c-11 -28 2 -140 20 -171 9 -17 32 -52 51 -78 l34 -48 7
37 c15 82 -21 199 -80 253 -23 22 -26 22 -32 7z"/>
<path d="M3081 1573 c-37 -45 -61 -118 -60 -182 1 -42 16 -111 18 -85 1 6 20
39 42 72 36 54 42 71 47 131 2 37 0 76 -5 86 -9 15 -14 12 -42 -22z"/>
<path d="M3154 1596 c-11 -28 2 -140 20 -171 9 -17 32 -52 51 -78 l34 -48 7
37 c15 82 -21 199 -80 253 -23 22 -26 22 -32 7z"/>
<path d="M4387 1570 c-56 -66 -78 -156 -58 -243 6 -28 7 -27 53 44 50 77 66
141 50 208 l-8 34 -37 -43z"/>
<path d="M1332 1528 c5 -72 12 -92 72 -191 22 -37 24 -37 30 -15 10 39 7 102
-8 152 -18 60 -61 126 -82 126 -14 0 -16 -10 -12 -72z"/>
<path d="M1592 1528 c5 -72 12 -92 72 -191 22 -37 24 -37 30 -15 10 39 7 102
-8 152 -18 60 -61 126 -82 126 -14 0 -16 -10 -12 -72z"/>
<path d="M2632 1528 c5 -72 12 -92 72 -191 22 -37 24 -37 30 -15 10 39 7 102
-8 152 -18 60 -61 126 -82 126 -14 0 -16 -10 -12 -72z"/>
<path d="M4194 1585 c-11 -26 2 -129 20 -161 9 -16 32 -51 51 -77 34 -48 34
-48 41 -22 4 15 4 53 1 86 -6 65 -48 152 -85 177 -19 13 -22 12 -28 -3z"/>
<path d="M807 1363 c-11 -10 -8 -93 4 -135 5 -21 20 -49 32 -64 l22 -25 -3 50
c-5 60 5 64 44 19 25 -30 26 -31 19 -8 -4 14 -18 39 -30 55 -13 17 -26 39 -29
51 -8 26 -50 67 -59 57z"/>
<path d="M1001 1333 c-49 -59 -74 -168 -55 -240 6 -20 12 -14 52 49 40 62 47
81 50 134 2 34 0 70 -5 79 -9 15 -14 12 -42 -22z"/>
<path d="M2823 1337 c-58 -61 -81 -136 -69 -222 l7 -45 45 61 c56 75 64 96 64
162 0 75 -10 84 -47 44z"/>
<path d="M2898 1364 c-13 -13 -9 -113 7 -149 8 -20 32 -60 53 -90 36 -50 40
-53 46 -32 10 39 6 102 -10 150 -17 49 -84 134 -96 121z"/>
<path d="M3081 1333 c-49 -59 -74 -168 -55 -240 6 -20 12 -14 52 49 40 62 47
81 50 134 2 34 0 70 -5 79 -9 15 -14 12 -42 -22z"/>
<path d="M3158 1364 c-13 -13 -9 -113 7 -149 8 -20 32 -60 53 -90 36 -50 40
-53 46 -32 10 39 6 102 -10 150 -17 49 -84 134 -96 121z"/>
<path d="M3353 1337 c-58 -61 -81 -136 -69 -222 l7 -45 45 61 c56 75 64 96 64
162 0 75 -10 84 -47 44z"/>
<path d="M3418 1364 c-13 -13 -9 -113 7 -149 8 -20 32 -60 53 -90 36 -50 40
-53 46 -32 10 39 6 102 -10 150 -17 49 -84 134 -96 121z"/>
<path d="M807 1134 c-11 -12 -7 -106 6 -144 7 -20 34 -61 60 -93 l46 -57 7 36
c9 48 -2 116 -25 162 -22 43 -84 106 -94 96z"/>
<path d="M1001 1103 c-37 -45 -61 -118 -60 -182 1 -42 16 -111 18 -85 1 6 20
39 42 72 36 54 42 71 47 131 2 37 0 76 -5 86 -9 15 -14 12 -42 -22z"/>
<path d="M3353 1107 c-59 -62 -82 -140 -69 -231 l7 -46 35 47 c55 76 74 122
74 183 0 78 -9 87 -47 47z"/>
<path d="M3418 1134 c-13 -13 -9 -113 7 -149 8 -20 32 -60 53 -90 36 -50 40
-53 46 -32 10 39 6 102 -10 150 -17 49 -84 134 -96 121z"/>
<path d="M1001 873 c-49 -59 -74 -168 -55 -240 6 -20 12 -14 52 49 40 62 47
81 50 134 2 34 0 70 -5 79 -9 15 -14 12 -42 -22z"/>
<path d="M1068 904 c-13 -13 -9 -113 7 -149 8 -20 32 -60 53 -90 36 -50 40
-53 46 -32 10 39 6 102 -10 150 -17 49 -84 134 -96 121z"/>
<path d="M3613 877 c-58 -61 -81 -136 -69 -222 l7 -45 45 61 c56 75 64 96 64
162 0 75 -10 84 -47 44z"/>
<path d="M3678 904 c-13 -13 -9 -113 7 -149 8 -20 32 -60 53 -90 36 -50 40
-53 46 -32 10 39 6 102 -10 150 -17 49 -84 134 -96 121z"/>
</g>
</svg>
